<svg width="10" height="10" viewBox="0 0 10 10" fill="none" xmlns="http://www.w3.org/2000/svg">
<path d="M0.703698 4.87596L5.02531 9.85643C5.06438 9.9015 5.11267 9.93764 5.16693 9.96241C5.22118 9.98718 5.28012 10 5.33977 10C5.39941 10 5.45835 9.98718 5.51261 9.96241C5.56686 9.93764 5.61515 9.9015 5.65422 9.85643L9.97453 4.87596C9.98759 4.86095 9.99605 4.8425 9.99892 4.82281C10.0018 4.80313 9.99893 4.78303 9.9907 4.76492C9.98247 4.74681 9.9692 4.73144 9.95248 4.72066C9.93577 4.70987 9.9163 4.70412 9.89641 4.70409L8.84172 4.70409C8.78182 4.70409 8.72453 4.73013 8.68417 4.7757L5.83391 8.06086L5.83391 0.728827C5.83391 0.671535 5.78703 0.62466 5.72974 0.62466L4.94849 0.62466C4.8912 0.62466 4.84432 0.671535 4.84432 0.728827L4.84432 8.06086L1.99406 4.7757C1.955 4.73013 1.89771 4.70409 1.83651 4.70409L0.781823 4.70409C0.693281 4.70409 0.645104 4.80825 0.703698 4.87596Z" fill="#00DD00"/>
</svg>
